<mxfile host="app.diagrams.net" modified="2021-05-31T12:44:56.428Z" agent="5.0 (Windows NT 10.0; Win64; x64) AppleWebKit/537.36 (KHTML, like Gecko) Chrome/90.0.4430.212 Safari/537.36" etag="ckLTH6kVEbMf6KwY7r5V" version="14.7.3" type="github">
  <diagram id="C5RBs43oDa-KdzZeNtuy" name="Page-1">
    <mxGraphModel dx="1038" dy="588" grid="1" gridSize="10" guides="1" tooltips="1" connect="1" arrows="1" fold="1" page="1" pageScale="1" pageWidth="827" pageHeight="1169" math="0" shadow="0">
      <root>
        <mxCell id="WIyWlLk6GJQsqaUBKTNV-0" />
        <mxCell id="WIyWlLk6GJQsqaUBKTNV-1" parent="WIyWlLk6GJQsqaUBKTNV-0" />
        <mxCell id="8ecxGFRnzqxW-zYlKmPr-5" value="" style="edgeStyle=orthogonalEdgeStyle;rounded=0;orthogonalLoop=1;jettySize=auto;html=1;" edge="1" parent="WIyWlLk6GJQsqaUBKTNV-1" source="8ecxGFRnzqxW-zYlKmPr-3" target="8ecxGFRnzqxW-zYlKmPr-4">
          <mxGeometry relative="1" as="geometry" />
        </mxCell>
        <mxCell id="8ecxGFRnzqxW-zYlKmPr-3" value="JVM" style="rounded=1;whiteSpace=wrap;html=1;fillColor=#dae8fc;strokeColor=#6c8ebf;" vertex="1" parent="WIyWlLk6GJQsqaUBKTNV-1">
          <mxGeometry x="60" y="200" width="120" height="60" as="geometry" />
        </mxCell>
        <mxCell id="8ecxGFRnzqxW-zYlKmPr-9" value="" style="edgeStyle=orthogonalEdgeStyle;rounded=0;orthogonalLoop=1;jettySize=auto;html=1;" edge="1" parent="WIyWlLk6GJQsqaUBKTNV-1" source="8ecxGFRnzqxW-zYlKmPr-4" target="8ecxGFRnzqxW-zYlKmPr-8">
          <mxGeometry relative="1" as="geometry">
            <Array as="points">
              <mxPoint x="340" y="150" />
            </Array>
          </mxGeometry>
        </mxCell>
        <mxCell id="8ecxGFRnzqxW-zYlKmPr-11" value="" style="edgeStyle=orthogonalEdgeStyle;rounded=0;orthogonalLoop=1;jettySize=auto;html=1;" edge="1" parent="WIyWlLk6GJQsqaUBKTNV-1" source="8ecxGFRnzqxW-zYlKmPr-4" target="8ecxGFRnzqxW-zYlKmPr-10">
          <mxGeometry relative="1" as="geometry" />
        </mxCell>
        <mxCell id="8ecxGFRnzqxW-zYlKmPr-4" value="inserten方法" style="whiteSpace=wrap;html=1;rounded=1;strokeColor=#6c8ebf;fillColor=#dae8fc;" vertex="1" parent="WIyWlLk6GJQsqaUBKTNV-1">
          <mxGeometry x="260" y="200" width="120" height="60" as="geometry" />
        </mxCell>
        <mxCell id="8ecxGFRnzqxW-zYlKmPr-8" value="在JVM7/8版本中，表示将字符串对象入池，并返回串池中的对象" style="whiteSpace=wrap;html=1;rounded=1;strokeColor=#6c8ebf;fillColor=#dae8fc;" vertex="1" parent="WIyWlLk6GJQsqaUBKTNV-1">
          <mxGeometry x="430" y="120" width="180" height="60" as="geometry" />
        </mxCell>
        <mxCell id="8ecxGFRnzqxW-zYlKmPr-10" value="在 JVM6中，表示将对象拷贝一份在入池，并返回串池中的对象" style="whiteSpace=wrap;html=1;rounded=1;strokeColor=#6c8ebf;fillColor=#dae8fc;" vertex="1" parent="WIyWlLk6GJQsqaUBKTNV-1">
          <mxGeometry x="440" y="200" width="170" height="60" as="geometry" />
        </mxCell>
      </root>
    </mxGraphModel>
  </diagram>
</mxfile>
